HIERARCHY
ROOT Hips
{
  OFFSET 196.326 95.9168 97.7182
  CHANNELS 6 Xposition Yposition Zposition Zrotation Xrotation Yrotation
  JOINT LeftUpLeg
  {
    OFFSET 8.64259 1.95398 -2.38835
    CHANNELS 3 Zrotation Xrotation Yrotation
    JOINT LeftLeg
    {
      OFFSET 43.7702 0 0
      CHANNELS 3 Zrotation Xrotation Yrotation
      JOINT LeftFoot
      {
        OFFSET 40.6238 0 0
        CHANNELS 3 Zrotation Xrotation Yrotation
        JOINT LeftToeBase
        {
          OFFSET 12.7242 0 0
          CHANNELS 3 Zrotation Xrotation Yrotation
          End Site
          {
            OFFSET 0 0 0
          }
        }
      }
    }
  }
  JOINT RightUpLeg
  {
    OFFSET -8.2249 1.95398 -2.59336
    CHANNELS 3 Zrotation Xrotation Yrotation
    JOINT RightLeg
    {
      OFFSET 43.5653 0 0
      CHANNELS 3 Zrotation Xrotation Yrotation
      JOINT RightFoot
      {
        OFFSET 40.6238 0 0
        CHANNELS 3 Zrotation Xrotation Yrotation
        JOINT RightToeBase
        {
          OFFSET 12.7242 0 0
          CHANNELS 3 Zrotation Xrotation Yrotation
          End Site
          {
            OFFSET 0 0 0
          }
        }
      }
    }
  }
  JOINT Spine
  {
    OFFSET 0.165834 0.87714 6.61349
    CHANNELS 3 Zrotation Xrotation Yrotation
    JOINT Spine1
    {
      OFFSET 7.38963 1.71661e-005 0
      CHANNELS 3 Zrotation Xrotation Yrotation
      JOINT Spine2
      {
        OFFSET 11.9445 1.14441e-005 0
        CHANNELS 3 Zrotation Xrotation Yrotation
        JOINT Spine3
        {
          OFFSET 14.7254 4.19617e-005 0
          CHANNELS 3 Zrotation Xrotation Yrotation
          JOINT Spine4
          {
            OFFSET 10.9679 0 0
            CHANNELS 3 Zrotation Xrotation Yrotation
            JOINT RightShoulder
            {
              OFFSET 2.46616 -1.6653 3.69651
              CHANNELS 3 Zrotation Xrotation Yrotation
              JOINT RightArm
              {
                OFFSET 13.0012 0 0
                CHANNELS 3 Zrotation Xrotation Yrotation
                JOINT RightForeArm
                {
                  OFFSET 28.7848 1.52588e-005 0
                  CHANNELS 3 Zrotation Xrotation Yrotation
                  JOINT RightHand
                  {
                    OFFSET 26.5688 1.52588e-005 0
                    CHANNELS 3 Zrotation Xrotation Yrotation
                    End Site
                    {
                      OFFSET 0 0 0
                    }
                  }
                }
              }
            }
            JOINT LeftShoulder
            {
              OFFSET 2.38034 -1.29275 -3.75231
              CHANNELS 3 Zrotation Xrotation Yrotation
              JOINT LeftArm
              {
                OFFSET 16.3182 6.10351e-005 0
                CHANNELS 3 Zrotation Xrotation Yrotation
                JOINT LeftForeArm
                {
                  OFFSET 27.0901 0 0
                  CHANNELS 3 Zrotation Xrotation Yrotation
                  JOINT LeftHand
                  {
                    OFFSET 24.5451 1.52588e-005 0
                    CHANNELS 3 Zrotation Xrotation Yrotation
                    End Site
                    {
                      OFFSET 0 0 0
                    }
                  }
                }
              }
            }
            JOINT Neck
            {
              OFFSET 5.0226 -0.0266342 0
              CHANNELS 3 Zrotation Xrotation Yrotation
              JOINT Head
              {
                OFFSET 6.69363 2.86102e-005 0
                CHANNELS 3 Zrotation Xrotation Yrotation
                End Site
                {
                  OFFSET 0 0 0
                }
              }
            }
          }
        }
      }
    }
  }
}
MOTION
Frames:	9
Frame Time:	0.0416667
-53.2019 97.0404 43.9155 -53.5137 -86.5715 -52.5186 -171.751 6.71441 92.2232 -7.79268 11.6058 -0.646993 59.716 4.89889 12.3135 37.5363 8.33752 -31.0688 178.091 6.90727 89.8469 -10.3583 6.03951 -0.388158 63.104 -1.58558 -0.825977 29.812 -1.06694 20.6342 -0.0594508 6.77281 -90.0852 13.3281 -0.159093 -0.150414 1.65718 -0.165555 -0.14327 -20.878 -0.106532 -0.191277 -0.865297 -0.106525 -0.191265 82.2543 -49.2624 -112.815 28.5797 -6.98685 8.60001 -4.78448 -11.9569 -38.9376 -6.17527 -0.585189 4.996 -102.137 -42.6618 57.7998 -30.6791 8.91842 7.36963 3.95416 8.46907 -31.7784 9.55517 0.727765 3.45123 17.6904 3.47034 0.397086 -11.4917 3.30333 -1.4736 
-53.1873 97.0235 43.6328 -52.1172 -86.2314 -51.2296 -171.635 7.1016 92.1872 -7.49855 10.8413 -0.873677 58.7233 4.02544 12.1668 40.8173 10.192 -34.0442 177.852 7.53625 89.6314 -10.6002 5.73491 -0.140865 63.2194 -1.63248 -0.856762 30.3657 -0.88877 19.7364 -0.0569065 6.85138 -90.045 13.1711 -0.13459 -0.0734903 1.50013 -0.137696 -0.0674999 -21.035 -0.10629 -0.110552 -1.02239 -0.106279 -0.110545 81.9177 -49.3902 -113.273 28.6661 -6.53129 9.52548 -4.3461 -11.5898 -37.7454 -6.7038 -0.588407 4.22344 -101.912 -42.2008 57.9358 -31.3949 8.89165 8.77767 4.09478 8.5459 -32.4486 11.4033 0.846481 3.37568 13.8241 2.34331 0.573182 -2.49349 2.19551 2.19958 
-53.1347 97.0341 43.3772 -47.777 -85.8017 -46.9879 -171.743 7.79003 92.0182 -7.5586 11.1928 -0.96898 58.7658 4.23872 12.8012 39.2752 9.42352 -31.5039 177.967 8.20327 89.5644 -10.5843 5.25913 -0.227349 63.0258 -1.56266 -0.814545 33.4055 -0.121408 18.1414 -0.0714876 6.92329 -90.0623 13.0272 -0.171832 -0.103511 1.35622 -0.176214 -0.0958446 -21.179 -0.132783 -0.150371 -1.16631 -0.132776 -0.150364 81.9613 -49.251 -113.26 28.5092 -6.62686 10.8581 -3.76932 -11.3068 -37.3481 -6.79526 -0.584782 4.09323 -101.633 -42.1366 58.3368 -32.4953 8.31857 10.5532 4.1541 7.72108 -33.0198 10.9875 0.760265 2.88424 14.4486 2.63004 0.568536 -0.137251 2.5431 2.34485 
-53.0802 96.9974 43.2146 -44.0901 -84.8636 -43.2732 -171.916 8.79188 91.8966 -7.73172 10.5098 -0.881418 59.0126 4.23069 12.6404 40.6115 10.4168 -29.3275 178.35 9.0303 89.6999 -10.1453 4.88325 -0.454075 62.803 -1.56882 -0.821163 36.5465 0.574411 17.6971 -0.0197564 6.97724 -90.0565 12.9193 -0.0662709 -0.104944 1.24838 -0.0708293 -0.101926 -21.2867 -0.0316778 -0.120017 -1.27409 -0.0316686 -0.120007 81.5299 -49.698 -113.738 28.2416 -6.2819 12.3072 -3.38772 -10.9115 -36.9677 -6.60032 -0.574423 4.22088 -101.623 -41.8863 58.2392 -33.5016 8.06528 12.4388 4.6353 8.30529 -33.4798 10.777 0.784358 3.21343 14.9388 2.5042 0.107412 4.46416 2.71583 3.07333 
-52.9672 96.9674 43.1797 -36.2193 -84.1451 -35.3644 -171.885 9.89381 91.8544 -7.76494 10.6547 -1.09089 59.2093 4.24599 12.6022 45.3116 13.7073 -27.7094 178.521 9.76232 89.7225 -9.46017 5.33204 -0.460973 62.7325 -1.61263 -0.847811 37.8009 0.854982 17.9858 -0.0292028 7.02083 -90.0745 12.8322 -0.0936287 -0.137781 1.1612 -0.0996069 -0.133538 -21.3739 -0.0479011 -0.159555 -1.36126 -0.0478899 -0.159552 81.0569 -49.9485 -114.347 28.1982 -5.76887 13.315 -3.74862 -11.1563 -36.3835 -7.2246 -0.639566 4.5658 -101.697 -41.9207 58.1395 -34.3383 7.95049 13.6776 4.49662 8.1182 -33.182 10.0019 0.618336 2.162 15.4762 2.56092 0.51098 11.1026 2.75591 2.55728 
-52.908 96.9126 43.1604 -31.337 -83.2823 -30.4756 -171.878 10.6443 91.8398 -7.24776 10.4151 -1.21439 59.0935 4.02165 12.0194 48.2177 16.052 -25.487 178.624 10.7456 89.723 -9.40879 5.69688 -0.400173 63.1592 -1.68362 -0.888341 39.8279 1.32777 18.6401 0.0129002 7.04814 -90.0753 12.7775 -0.0103909 -0.149275 1.10657 -0.0169469 -0.148676 -21.4285 0.0349525 -0.145492 -1.41587 0.0349547 -0.145498 80.8692 -50.1846 -114.534 28.1411 -5.9489 13.9811 -2.3212 -10.058 -34.82 -7.08067 -0.593777 4.03002 -101.728 -41.7153 57.9975 -34.9226 8.17484 14.1891 4.18682 8.09118 -32.874 11.037 0.712037 2.43776 17.4221 2.34203 0.730958 15.0185 2.52877 2.40488 
-52.829 96.9093 43.31 -29.1045 -82.7137 -28.1907 -171.878 11.2054 91.8043 -7.39494 10.4196 -1.29498 59.8813 4.5453 11.792 46.8628 15.4833 -23.0859 178.688 11.1421 89.7415 -9.14888 5.84044 -0.376047 63.2121 -1.70261 -0.898633 40.7504 1.54012 18.7289 0.0459693 7.05439 -90.07 12.7651 0.0578691 -0.146719 1.09411 0.0513544 -0.14914 -21.441 0.0992852 -0.122547 -1.42836 0.0992912 -0.122554 79.8742 -50.6396 -115.824 27.7681 -6.07595 14.5997 -1.70855 -9.85517 -34.1563 -7.13949 -0.59443 3.99527 -101.969 -41.7894 57.6578 -35.1238 8.30407 14.0172 2.85233 6.25353 -31.5313 11.8654 0.864551 3.27134 18.6988 2.20152 0.280326 16.7751 2.61207 2.6717 
-52.7259 96.9743 43.6147 -28.8441 -82.2861 -27.7658 -171.732 11.3662 91.8909 -7.16819 10.375 -1.41606 59.5411 4.40182 12.2599 48.413 16.4678 -23.895 178.835 11.3449 89.8746 -9.03318 5.80078 -0.44056 62.4148 -1.46768 -0.751976 42.8757 2.00117 18.2821 0.0792799 7.05042 -90.0579 12.7731 0.12982 -0.131212 1.10218 0.12392 -0.136807 -21.433 0.163254 -0.0861251 -1.42036 0.16325 -0.0861389 79.5594 -51.0606 -116.117 27.3148 -6.93466 13.2262 -1.47717 -10.2015 -33.1721 -6.90022 -0.601223 4.42216 -102.829 -42.1262 56.4877 -34.1401 8.26521 13.2295 2.56849 6.21008 -30.2704 11.4277 0.813418 3.09009 20.2719 2.34999 0.196325 16.3004 2.71415 2.44214 
-52.6444 96.9983 44.1069 -29.6681 -81.9113 -28.2922 -171.697 11.0942 92.1061 -6.64923 10.4452 -1.34553 59.398 4.80304 12.9815 49.5259 17.0492 -25.0265 179.071 12.0469 90.1142 -10.1284 6.0647 -0.558658 61.1095 -0.842335 -0.345364 44.9832 2.46641 18.1682 0.126653 6.94189 -90.0952 12.9902 0.205779 -0.215419 1.31928 0.1961 -0.22428 -21.2159 0.261003 -0.143616 -1.2033 0.261012 -0.143617 77.868 -52.1346 -118.126 24.75 -9.05462 10.259 -0.450294 -12.6443 -30.9633 -5.90623 -0.554286 4.75292 -104.695 -42.8242 53.9806 -31.5941 10.2173 10.3188 1.02697 7.43843 -26.3896 10.3739 0.709024 2.77939 20.2137 2.17105 1.48333 15.6895 1.91393 1.39638 
